<?xml version="1.0" encoding="UTF-8" standalone="no"?><!-- Generator: Gravit.io --><svg xmlns="http://www.w3.org/2000/svg" xmlns:xlink="http://www.w3.org/1999/xlink" style="isolation:isolate" viewBox="0 0 500 500" width="500pt" height="500pt"><defs><clipPath id="_clipPath_cgmCZMMX15QGpmv1JxMUqhyRzHka3Oe5"><rect width="500" height="500"/></clipPath></defs><g clip-path="url(#_clipPath_cgmCZMMX15QGpmv1JxMUqhyRzHka3Oe5)"><defs><filter id="eGOuBd6Se8o0Sll0kpKz5tAH4d8sraeS" x="-200%" y="-200%" width="400%" height="400%" filterUnits="objectBoundingBox" color-interpolation-filters="sRGB"><feOffset xmlns="http://www.w3.org/2000/svg" in="SourceGraphic" dx="0" dy="50"/><feGaussianBlur xmlns="http://www.w3.org/2000/svg" stdDeviation="0" result="pf_100_offsetBlur"/><feComposite xmlns="http://www.w3.org/2000/svg" in="SourceGraphic" in2="pf_100_offsetBlur" result="pf_100_inverse" operator="out"/><feFlood xmlns="http://www.w3.org/2000/svg" flood-color="#000000" flood-opacity="0.2" result="pf_100_color"/><feComposite xmlns="http://www.w3.org/2000/svg" in="pf_100_color" in2="pf_100_inverse" operator="in" result="pf_100_shadow"/><feComposite xmlns="http://www.w3.org/2000/svg" in="pf_100_shadow" in2="SourceGraphic" operator="over"/></filter></defs><g filter="url(#eGOuBd6Se8o0Sll0kpKz5tAH4d8sraeS)"><circle vector-effect="non-scaling-stroke" cx="250" cy="250" r="200" fill="rgb(106,101,97)"/></g><defs><filter id="PopjjPy19zcvZGwsYpSBegVTfk6froI5" x="-200%" y="-200%" width="400%" height="400%" filterUnits="objectBoundingBox" color-interpolation-filters="sRGB"><feGaussianBlur xmlns="http://www.w3.org/2000/svg" in="SourceGraphic" stdDeviation="0"/><feOffset xmlns="http://www.w3.org/2000/svg" dx="0" dy="15" result="pf_100_offsetBlur"/><feFlood xmlns="http://www.w3.org/2000/svg" flood-color="#000000" flood-opacity="0.2"/><feComposite xmlns="http://www.w3.org/2000/svg" in2="pf_100_offsetBlur" operator="in" result="pf_100_dropShadow"/><feBlend xmlns="http://www.w3.org/2000/svg" in="SourceGraphic" in2="pf_100_dropShadow" mode="normal"/></filter></defs><g filter="url(#PopjjPy19zcvZGwsYpSBegVTfk6froI5)"><path d=" M 201.3 298.15 L 213.6 342.25 L 213.6 342.25 Q 217.2 345.85 222.9 348.4 L 222.9 348.4 L 222.9 348.4 Q 228.6 350.95 240 350.95 L 240 350.95 L 240 350.95 Q 249.6 350.95 258 348.4 L 258 348.4 L 258 348.4 Q 266.4 345.85 272.55 340.9 L 272.55 340.9 L 272.55 340.9 Q 278.7 335.95 282.3 328.9 L 282.3 328.9 L 282.3 328.9 Q 285.9 321.85 285.9 312.85 L 285.9 312.85 L 285.9 312.85 Q 285.9 300.85 278.55 292.75 L 278.55 292.75 L 278.55 292.75 Q 271.2 284.65 260.25 278.35 L 260.25 278.35 L 260.25 278.35 Q 249.3 272.05 236.4 266.05 L 236.4 266.05 L 236.4 266.05 Q 223.5 260.05 212.55 251.8 L 212.55 251.8 L 212.55 251.8 Q 201.6 243.55 194.25 232 L 194.25 232 L 194.25 232 Q 186.9 220.45 186.9 203.05 L 186.9 203.05 L 186.9 203.05 Q 186.9 190.45 191.4 180.55 L 191.4 180.55 L 191.4 180.55 Q 195.9 170.65 204.15 163.75 L 204.15 163.75 L 204.15 163.75 Q 212.4 156.85 223.8 153.1 L 223.8 153.1 L 223.8 153.1 Q 235.2 149.35 249.3 149.35 L 249.3 149.35 L 249.3 149.35 Q 267.6 149.35 282.75 152.2 L 282.75 152.2 L 282.75 152.2 Q 297.9 155.05 306.6 159.25 L 306.6 159.25 L 306.6 159.25 Q 306.6 164.35 305.85 171.1 L 305.85 171.1 L 305.85 171.1 Q 305.1 177.85 304.05 185.05 L 304.05 185.05 L 304.05 185.05 Q 303 192.25 301.8 199 L 301.8 199 L 301.8 199 Q 300.6 205.75 299.4 210.85 L 299.4 210.85 L 291.6 210.85 L 279.6 169.75 L 279.6 169.75 Q 274.2 167.35 265.95 166.15 L 265.95 166.15 L 265.95 166.15 Q 257.7 164.95 248.4 164.95 L 248.4 164.95 L 248.4 164.95 Q 233.1 164.95 223.8 173.5 L 223.8 173.5 L 223.8 173.5 Q 214.5 182.05 214.5 197.35 L 214.5 197.35 L 214.5 197.35 Q 214.5 209.65 221.85 218.05 L 221.85 218.05 L 221.85 218.05 Q 229.2 226.45 240.3 233.05 L 240.3 233.05 L 240.3 233.05 Q 251.4 239.65 264.15 245.8 L 264.15 245.8 L 264.15 245.8 Q 276.9 251.95 288 260.05 L 288 260.05 L 288 260.05 Q 299.1 268.15 306.45 279.25 L 306.45 279.25 L 306.45 279.25 Q 313.8 290.35 313.8 306.85 L 313.8 306.85 L 313.8 306.85 Q 313.8 320.35 308.85 331.45 L 308.85 331.45 L 308.85 331.45 Q 303.9 342.55 294.6 350.35 L 294.6 350.35 L 294.6 350.35 Q 285.3 358.15 271.8 362.35 L 271.8 362.35 L 271.8 362.35 Q 258.3 366.55 241.2 366.55 L 241.2 366.55 L 241.2 366.55 Q 222.3 366.55 207.3 362.05 L 207.3 362.05 L 207.3 362.05 Q 192.3 357.55 186 352.45 L 186 352.45 L 186 352.45 Q 186.3 347.35 187.05 340.15 L 187.05 340.15 L 187.05 340.15 Q 187.8 332.95 188.85 325.3 L 188.85 325.3 L 188.85 325.3 Q 189.9 317.65 191.1 310.45 L 191.1 310.45 L 191.1 310.45 Q 192.3 303.25 193.5 298.15 L 193.5 298.15 L 201.3 298.15 L 201.3 298.15 Z " fill="rgb(225,222,218)"/></g><defs><filter id="uH5vMtKRqN6BwFbBbMlgg3WhGHjDpkX0" x="-200%" y="-200%" width="400%" height="400%" filterUnits="objectBoundingBox" color-interpolation-filters="sRGB"><feGaussianBlur xmlns="http://www.w3.org/2000/svg" in="SourceGraphic" stdDeviation="0"/><feOffset xmlns="http://www.w3.org/2000/svg" dx="0" dy="1" result="pf_100_offsetBlur"/><feFlood xmlns="http://www.w3.org/2000/svg" flood-color="#000000" flood-opacity="0.2"/><feComposite xmlns="http://www.w3.org/2000/svg" in2="pf_100_offsetBlur" operator="in" result="pf_100_dropShadow"/><feBlend xmlns="http://www.w3.org/2000/svg" in="SourceGraphic" in2="pf_100_dropShadow" mode="normal"/></filter></defs><g filter="url(#uH5vMtKRqN6BwFbBbMlgg3WhGHjDpkX0)"><path d=" M 157.7 401.025 L 157.7 400.3 L 164.05 400.3 L 164.05 401.023 L 164.05 401.023 Q 163.575 401.222 163.1 401.372 L 163.1 401.372 L 163.1 401.372 Q 162.625 401.521 162.15 401.646 L 162.15 401.646 L 162.15 411.839 L 162.15 411.839 Q 162.15 413.16 162.438 414.045 L 162.438 414.045 L 162.438 414.045 Q 162.725 414.93 163.275 415.466 L 163.275 415.466 L 163.275 415.466 Q 163.825 416.001 164.638 416.238 L 164.638 416.238 L 164.638 416.238 Q 165.45 416.475 166.475 416.475 L 166.475 416.475 L 166.475 416.475 Q 168.45 416.475 169.55 415.391 L 169.55 415.391 L 169.55 415.391 Q 170.65 414.307 170.65 411.814 L 170.65 411.814 L 170.65 401.87 L 170.65 401.87 Q 170.075 401.671 169.575 401.459 L 169.575 401.459 L 169.575 401.459 Q 169.075 401.247 168.675 401.023 L 168.675 401.023 L 168.675 400.3 L 174 400.3 L 174 401.025 L 174 401.025 Q 173.525 401.3 173.038 401.525 L 173.038 401.525 L 173.038 401.525 Q 172.55 401.75 172.05 401.875 L 172.05 401.875 L 172.05 411.9 L 172.05 411.9 Q 172.05 413.5 171.625 414.65 L 171.625 414.65 L 171.625 414.65 Q 171.2 415.8 170.438 416.55 L 170.438 416.55 L 170.438 416.55 Q 169.675 417.3 168.588 417.663 L 168.588 417.663 L 168.588 417.663 Q 167.5 418.025 166.175 418.025 L 166.175 418.025 L 166.175 418.025 Q 163.05 418.025 161.4 416.612 L 161.4 416.612 L 161.4 416.612 Q 159.75 415.2 159.75 412.275 L 159.75 412.275 L 159.75 401.65 L 159.75 401.65 Q 158.725 401.5 157.7 401.025 L 157.7 401.025 Z  M 186.425 401.025 L 186.425 400.3 L 191.825 400.3 L 191.825 401.025 L 191.825 401.025 Q 190.775 401.725 189.775 402.025 L 189.775 402.025 L 189.775 418.1 L 188.35 418.1 L 179.275 404.325 L 178.3 402.375 L 178.225 402.375 L 178.45 404.325 L 178.45 416.2 L 178.45 416.2 Q 179.475 416.475 180.375 417.075 L 180.375 417.075 L 180.375 417.8 L 174.975 417.8 L 174.975 417.075 L 174.975 417.075 Q 175.425 416.8 175.938 416.588 L 175.938 416.588 L 175.938 416.588 Q 176.45 416.375 177.025 416.2 L 177.025 416.2 L 177.025 401.875 L 177.025 401.875 Q 176.525 401.675 176.038 401.45 L 176.038 401.45 L 176.038 401.45 Q 175.55 401.225 175.125 401 L 175.125 401 L 175.125 400.3 L 179.35 400.3 L 187.225 412.175 L 188.375 414.325 L 188.475 414.325 L 188.35 412.175 L 188.35 402.025 L 188.35 402.025 Q 187.825 401.8 187.338 401.55 L 187.338 401.55 L 187.338 401.55 Q 186.85 401.3 186.425 401.025 L 186.425 401.025 Z  M 195.675 417.8 L 193.275 417.8 L 193.275 417.075 L 193.275 417.075 Q 194.15 416.675 195.325 416.475 L 195.325 416.475 L 195.325 401.65 L 195.325 401.65 Q 194.75 401.525 194.225 401.362 L 194.225 401.362 L 194.225 401.362 Q 193.7 401.2 193.275 401.025 L 193.275 401.025 L 193.275 400.3 L 195.825 400.3 L 195.825 400.3 Q 196.25 400.3 196.825 400.275 L 196.825 400.275 L 196.825 400.275 Q 197.4 400.25 198.013 400.213 L 198.013 400.213 L 198.013 400.213 Q 198.625 400.175 199.188 400.138 L 199.188 400.138 L 199.188 400.138 Q 199.75 400.1 200.125 400.1 L 200.125 400.1 L 200.125 400.1 Q 204.375 400.1 206.663 402.375 L 206.663 402.375 L 206.663 402.375 Q 208.95 404.65 208.95 408.825 L 208.95 408.825 L 208.95 408.825 Q 208.95 410.8 208.388 412.487 L 208.388 412.487 L 208.388 412.487 Q 207.825 414.175 206.675 415.4 L 206.675 415.4 L 206.675 415.4 Q 205.525 416.625 203.763 417.325 L 203.763 417.325 L 203.763 417.325 Q 202 418.025 199.6 418.025 L 199.6 418.025 L 199.6 418.025 Q 199.225 418.025 198.75 417.987 L 198.75 417.987 L 198.75 417.987 Q 198.275 417.95 197.75 417.913 L 197.75 417.913 L 197.75 417.913 Q 197.225 417.875 196.688 417.838 L 196.688 417.838 L 196.688 417.838 Q 196.15 417.8 195.675 417.8 L 195.675 417.8 Z  M 199.775 401.4 L 199.775 401.4 L 199.775 401.4 Q 199.125 401.4 198.525 401.413 L 198.525 401.413 L 198.525 401.413 Q 197.925 401.425 197.575 401.5 L 197.575 401.5 L 197.575 416.65 L 197.575 416.65 Q 197.7 416.675 198.025 416.688 L 198.025 416.688 L 198.025 416.688 Q 198.35 416.7 198.725 416.713 L 198.725 416.713 L 198.725 416.713 Q 199.1 416.725 199.438 416.725 L 199.438 416.725 L 199.438 416.725 Q 199.775 416.725 199.925 416.725 L 199.925 416.725 L 199.925 416.725 Q 201.65 416.725 202.85 416.075 L 202.85 416.075 L 202.85 416.075 Q 204.05 415.425 204.813 414.338 L 204.813 414.338 L 204.813 414.338 Q 205.575 413.25 205.925 411.825 L 205.925 411.825 L 205.925 411.825 Q 206.275 410.4 206.275 408.825 L 206.275 408.825 L 206.275 408.825 Q 206.275 407.6 205.938 406.288 L 205.938 406.288 L 205.938 406.288 Q 205.6 404.975 204.838 403.888 L 204.838 403.888 L 204.838 403.888 Q 204.075 402.8 202.825 402.1 L 202.825 402.1 L 202.825 402.1 Q 201.575 401.4 199.775 401.4 Z  M 210.975 400.3 L 222.825 400.3 L 222.825 400.3 Q 222.8 401.3 222.738 402.313 L 222.738 402.313 L 222.738 402.313 Q 222.675 403.325 222.55 404.35 L 222.55 404.35 L 221.9 404.35 L 220.875 401.6 L 215.425 401.6 L 215.425 408.225 L 219.5 408.225 L 220.475 406.375 L 221.1 406.375 L 221.1 406.375 Q 221.25 408.85 221.1 411.425 L 221.1 411.425 L 220.475 411.425 L 219.5 409.525 L 215.425 409.525 L 215.425 416.5 L 221.175 416.5 L 222.4 413.5 L 223.025 413.5 L 223.025 413.5 Q 223.2 414.55 223.275 415.625 L 223.275 415.625 L 223.275 415.625 Q 223.35 416.7 223.3 417.8 L 223.3 417.8 L 210.975 417.8 L 210.975 417.075 L 210.975 417.075 Q 211.85 416.675 213.025 416.475 L 213.025 416.475 L 213.025 401.65 L 213.025 401.65 Q 212.525 401.55 212 401.388 L 212 401.388 L 212 401.388 Q 211.475 401.225 210.975 401.025 L 210.975 401.025 L 210.975 400.3 Z  M 229.975 410.05 L 229.975 416.475 L 229.975 416.475 Q 230.55 416.6 231.075 416.737 L 231.075 416.737 L 231.075 416.737 Q 231.6 416.875 232.1 417.075 L 232.1 417.075 L 232.1 417.8 L 225.525 417.8 L 225.525 417.075 L 225.525 417.075 Q 226.075 416.825 226.575 416.7 L 226.575 416.7 L 226.575 416.7 Q 227.075 416.575 227.575 416.475 L 227.575 416.475 L 227.575 401.65 L 227.575 401.65 Q 226.925 401.525 226.425 401.362 L 226.425 401.362 L 226.425 401.362 Q 225.925 401.2 225.525 401.025 L 225.525 401.025 L 225.525 400.3 L 227.725 400.3 L 227.725 400.3 Q 228.725 400.3 229.913 400.2 L 229.913 400.2 L 229.913 400.2 Q 231.1 400.1 232.225 400.1 L 232.225 400.1 L 232.225 400.1 Q 233.45 400.1 234.513 400.375 L 234.513 400.375 L 234.513 400.375 Q 235.575 400.65 236.35 401.25 L 236.35 401.25 L 236.35 401.25 Q 237.125 401.85 237.563 402.775 L 237.563 402.775 L 237.563 402.775 Q 238 403.7 238 405 L 238 405 L 238 405 Q 238 406.825 237.038 408.025 L 237.038 408.025 L 237.038 408.025 Q 236.075 409.225 234.425 409.75 L 234.425 409.75 L 234.425 409.75 Q 235.5 411.45 236.675 413.125 L 236.675 413.125 L 236.675 413.125 Q 237.85 414.8 239.125 416.45 L 239.125 416.45 L 240.475 417.175 L 240.475 417.8 L 237.45 417.8 L 236.5 417.1 L 236.5 417.1 Q 235.8 416.225 235.225 415.388 L 235.225 415.388 L 235.225 415.388 Q 234.65 414.55 234.15 413.688 L 234.15 413.688 L 234.15 413.688 Q 233.65 412.825 233.213 411.938 L 233.213 411.938 L 233.213 411.938 Q 232.775 411.05 232.325 410.05 L 232.325 410.05 L 229.975 410.05 Z  M 231.675 401.4 L 231.675 401.4 L 231.675 401.4 Q 231.075 401.4 230.688 401.425 L 230.688 401.425 L 230.688 401.425 Q 230.3 401.45 229.975 401.524 L 229.975 401.524 L 229.975 408.95 L 231.775 408.95 L 231.775 408.95 Q 233.5 408.95 234.513 407.857 L 234.513 407.857 L 234.513 407.857 Q 235.525 406.764 235.525 404.976 L 235.525 404.976 L 235.525 404.976 Q 235.525 403.138 234.45 402.269 L 234.45 402.269 L 234.45 402.269 Q 233.375 401.4 231.675 401.4 Z  M 255.175 410.875 L 255.175 416.6 L 255.175 416.6 Q 254.7 416.875 254.063 417.138 L 254.063 417.138 L 254.063 417.138 Q 253.425 417.4 252.713 417.612 L 252.713 417.612 L 252.713 417.612 Q 252 417.825 251.288 417.963 L 251.288 417.963 L 251.288 417.963 Q 250.575 418.1 249.95 418.1 L 249.95 418.1 L 249.95 418.1 Q 247.95 418.1 246.35 417.563 L 246.35 417.563 L 246.35 417.563 Q 244.75 417.025 243.625 415.913 L 243.625 415.913 L 243.625 415.913 Q 242.5 414.8 241.888 413.1 L 241.888 413.1 L 241.888 413.1 Q 241.275 411.4 241.275 409.05 L 241.275 409.05 L 241.275 409.05 Q 241.275 406.6 241.988 404.875 L 241.988 404.875 L 241.988 404.875 Q 242.7 403.15 243.888 402.063 L 243.888 402.063 L 243.888 402.063 Q 245.075 400.975 246.588 400.487 L 246.588 400.487 L 246.588 400.487 Q 248.1 400 249.675 400 L 249.675 400 L 249.675 400 Q 251.325 400 252.463 400.213 L 252.463 400.213 L 252.463 400.213 Q 253.6 400.425 254.45 400.85 L 254.45 400.85 L 254.45 400.85 Q 254.45 401.225 254.425 401.775 L 254.425 401.775 L 254.425 401.775 Q 254.4 402.325 254.35 402.925 L 254.35 402.925 L 254.35 402.925 Q 254.3 403.525 254.225 404.112 L 254.225 404.112 L 254.225 404.112 Q 254.15 404.7 254.075 405.15 L 254.075 405.15 L 253.425 405.15 L 252.125 401.55 L 252.125 401.55 Q 251.85 401.4 251.2 401.35 L 251.2 401.35 L 251.2 401.35 Q 250.55 401.3 249.925 401.3 L 249.925 401.3 L 249.925 401.3 Q 248.675 401.3 247.55 401.763 L 247.55 401.763 L 247.55 401.763 Q 246.425 402.225 245.588 403.188 L 245.588 403.188 L 245.588 403.188 Q 244.75 404.15 244.25 405.612 L 244.25 405.612 L 244.25 405.612 Q 243.75 407.075 243.75 409.05 L 243.75 409.05 L 243.75 409.05 Q 243.75 410.825 244.238 412.25 L 244.238 412.25 L 244.238 412.25 Q 244.725 413.675 245.588 414.688 L 245.588 414.688 L 245.588 414.688 Q 246.45 415.7 247.613 416.25 L 247.613 416.25 L 247.613 416.25 Q 248.775 416.8 250.125 416.8 L 250.125 416.8 L 250.125 416.8 Q 250.625 416.8 251.1 416.7 L 251.1 416.7 L 251.1 416.7 Q 251.575 416.6 251.975 416.463 L 251.975 416.463 L 251.975 416.463 Q 252.375 416.325 252.638 416.175 L 252.638 416.175 L 252.638 416.175 Q 252.9 416.025 253 415.925 L 253 415.925 L 253 410.875 L 253 410.875 Q 252.35 410.825 251.763 410.65 L 251.763 410.65 L 251.763 410.65 Q 251.175 410.475 250.6 410.275 L 250.6 410.275 L 250.6 409.55 L 256.725 409.55 L 256.725 410.275 L 256.725 410.275 Q 256.475 410.45 256.125 410.6 L 256.125 410.6 L 256.125 410.6 Q 255.775 410.75 255.175 410.875 L 255.175 410.875 Z  M 262.325 410.05 L 262.325 416.475 L 262.325 416.475 Q 262.9 416.6 263.425 416.737 L 263.425 416.737 L 263.425 416.737 Q 263.95 416.875 264.45 417.075 L 264.45 417.075 L 264.45 417.8 L 257.875 417.8 L 257.875 417.075 L 257.875 417.075 Q 258.425 416.825 258.925 416.7 L 258.925 416.7 L 258.925 416.7 Q 259.425 416.575 259.925 416.475 L 259.925 416.475 L 259.925 401.65 L 259.925 401.65 Q 259.275 401.525 258.775 401.362 L 258.775 401.362 L 258.775 401.362 Q 258.275 401.2 257.875 401.025 L 257.875 401.025 L 257.875 400.3 L 260.075 400.3 L 260.075 400.3 Q 261.075 400.3 262.263 400.2 L 262.263 400.2 L 262.263 400.2 Q 263.45 400.1 264.575 400.1 L 264.575 400.1 L 264.575 400.1 Q 265.8 400.1 266.862 400.375 L 266.862 400.375 L 266.862 400.375 Q 267.925 400.65 268.7 401.25 L 268.7 401.25 L 268.7 401.25 Q 269.475 401.85 269.913 402.775 L 269.913 402.775 L 269.913 402.775 Q 270.35 403.7 270.35 405 L 270.35 405 L 270.35 405 Q 270.35 406.825 269.388 408.025 L 269.388 408.025 L 269.388 408.025 Q 268.425 409.225 266.775 409.75 L 266.775 409.75 L 266.775 409.75 Q 267.85 411.45 269.025 413.125 L 269.025 413.125 L 269.025 413.125 Q 270.2 414.8 271.475 416.45 L 271.475 416.45 L 272.825 417.175 L 272.825 417.8 L 269.8 417.8 L 268.85 417.1 L 268.85 417.1 Q 268.15 416.225 267.575 415.388 L 267.575 415.388 L 267.575 415.388 Q 267 414.55 266.5 413.688 L 266.5 413.688 L 266.5 413.688 Q 266 412.825 265.563 411.938 L 265.563 411.938 L 265.563 411.938 Q 265.125 411.05 264.675 410.05 L 264.675 410.05 L 262.325 410.05 Z  M 264.025 401.4 L 264.025 401.4 L 264.025 401.4 Q 263.425 401.4 263.038 401.425 L 263.038 401.425 L 263.038 401.425 Q 262.65 401.45 262.325 401.524 L 262.325 401.524 L 262.325 408.95 L 264.125 408.95 L 264.125 408.95 Q 265.85 408.95 266.862 407.857 L 266.862 407.857 L 266.862 407.857 Q 267.875 406.764 267.875 404.976 L 267.875 404.976 L 267.875 404.976 Q 267.875 403.138 266.8 402.269 L 266.8 402.269 L 266.8 402.269 Q 265.725 401.4 264.025 401.4 Z  M 273.625 409.05 L 273.625 409.05 L 273.625 409.05 Q 273.625 407.1 274.163 405.438 L 274.163 405.438 L 274.163 405.438 Q 274.7 403.775 275.713 402.563 L 275.713 402.563 L 275.713 402.563 Q 276.725 401.35 278.2 400.675 L 278.2 400.675 L 278.2 400.675 Q 279.675 400 281.55 400 L 281.55 400 L 281.55 400 Q 283.425 400 284.9 400.675 L 284.9 400.675 L 284.9 400.675 Q 286.375 401.35 287.388 402.563 L 287.388 402.563 L 287.388 402.563 Q 288.4 403.775 288.938 405.438 L 288.938 405.438 L 288.938 405.438 Q 289.475 407.1 289.475 409.05 L 289.475 409.05 L 289.475 409.05 Q 289.475 411 288.938 412.663 L 288.938 412.663 L 288.938 412.663 Q 288.4 414.325 287.388 415.538 L 287.388 415.538 L 287.388 415.538 Q 286.375 416.75 284.9 417.425 L 284.9 417.425 L 284.9 417.425 Q 283.425 418.1 281.55 418.1 L 281.55 418.1 L 281.55 418.1 Q 279.675 418.1 278.2 417.425 L 278.2 417.425 L 278.2 417.425 Q 276.725 416.75 275.713 415.538 L 275.713 415.538 L 275.713 415.538 Q 274.7 414.325 274.163 412.663 L 274.163 412.663 L 274.163 412.663 Q 273.625 411 273.625 409.05 Z  M 276.3 409.05 L 276.3 409.05 L 276.3 409.05 Q 276.3 410.65 276.638 412.063 L 276.638 412.063 L 276.638 412.063 Q 276.975 413.475 277.65 414.525 L 277.65 414.525 L 277.65 414.525 Q 278.325 415.575 279.35 416.188 L 279.35 416.188 L 279.35 416.188 Q 280.375 416.8 281.775 416.8 L 281.775 416.8 L 281.775 416.8 Q 283.05 416.8 284 416.188 L 284 416.188 L 284 416.188 Q 284.95 415.575 285.563 414.525 L 285.563 414.525 L 285.563 414.525 Q 286.175 413.475 286.487 412.063 L 286.487 412.063 L 286.487 412.063 Q 286.8 410.65 286.8 409.05 L 286.8 409.05 L 286.8 409.05 Q 286.8 407.45 286.475 406.038 L 286.475 406.038 L 286.475 406.038 Q 286.15 404.625 285.475 403.575 L 285.475 403.575 L 285.475 403.575 Q 284.8 402.525 283.775 401.913 L 283.775 401.913 L 283.775 401.913 Q 282.75 401.3 281.35 401.3 L 281.35 401.3 L 281.35 401.3 Q 279.975 401.3 279.013 401.913 L 279.013 401.913 L 279.013 401.913 Q 278.05 402.525 277.45 403.575 L 277.45 403.575 L 277.45 403.575 Q 276.85 404.625 276.575 406.038 L 276.575 406.038 L 276.575 406.038 Q 276.3 407.45 276.3 409.05 Z  M 291.05 401.025 L 291.05 400.3 L 297.4 400.3 L 297.4 401.023 L 297.4 401.023 Q 296.925 401.222 296.45 401.372 L 296.45 401.372 L 296.45 401.372 Q 295.975 401.521 295.5 401.646 L 295.5 401.646 L 295.5 411.839 L 295.5 411.839 Q 295.5 413.16 295.788 414.045 L 295.788 414.045 L 295.788 414.045 Q 296.075 414.93 296.625 415.466 L 296.625 415.466 L 296.625 415.466 Q 297.175 416.001 297.987 416.238 L 297.987 416.238 L 297.987 416.238 Q 298.8 416.475 299.825 416.475 L 299.825 416.475 L 299.825 416.475 Q 301.8 416.475 302.9 415.391 L 302.9 415.391 L 302.9 415.391 Q 304 414.307 304 411.814 L 304 411.814 L 304 401.87 L 304 401.87 Q 303.425 401.671 302.925 401.459 L 302.925 401.459 L 302.925 401.459 Q 302.425 401.247 302.025 401.023 L 302.025 401.023 L 302.025 400.3 L 307.35 400.3 L 307.35 401.025 L 307.35 401.025 Q 306.875 401.3 306.388 401.525 L 306.388 401.525 L 306.388 401.525 Q 305.9 401.75 305.4 401.875 L 305.4 401.875 L 305.4 411.9 L 305.4 411.9 Q 305.4 413.5 304.975 414.65 L 304.975 414.65 L 304.975 414.65 Q 304.55 415.8 303.788 416.55 L 303.788 416.55 L 303.788 416.55 Q 303.025 417.3 301.938 417.663 L 301.938 417.663 L 301.938 417.663 Q 300.85 418.025 299.525 418.025 L 299.525 418.025 L 299.525 418.025 Q 296.4 418.025 294.75 416.612 L 294.75 416.612 L 294.75 416.612 Q 293.1 415.2 293.1 412.275 L 293.1 412.275 L 293.1 401.65 L 293.1 401.65 Q 292.075 401.5 291.05 401.025 L 291.05 401.025 Z  M 319.775 401.025 L 319.775 400.3 L 325.175 400.3 L 325.175 401.025 L 325.175 401.025 Q 324.125 401.725 323.125 402.025 L 323.125 402.025 L 323.125 418.1 L 321.7 418.1 L 312.625 404.325 L 311.65 402.375 L 311.575 402.375 L 311.8 404.325 L 311.8 416.2 L 311.8 416.2 Q 312.825 416.475 313.725 417.075 L 313.725 417.075 L 313.725 417.8 L 308.325 417.8 L 308.325 417.075 L 308.325 417.075 Q 308.775 416.8 309.288 416.588 L 309.288 416.588 L 309.288 416.588 Q 309.8 416.375 310.375 416.2 L 310.375 416.2 L 310.375 401.875 L 310.375 401.875 Q 309.875 401.675 309.388 401.45 L 309.388 401.45 L 309.388 401.45 Q 308.9 401.225 308.475 401 L 308.475 401 L 308.475 400.3 L 312.7 400.3 L 320.575 412.175 L 321.725 414.325 L 321.825 414.325 L 321.7 412.175 L 321.7 402.025 L 321.7 402.025 Q 321.175 401.8 320.688 401.55 L 320.688 401.55 L 320.688 401.55 Q 320.2 401.3 319.775 401.025 L 319.775 401.025 Z  M 329.025 417.8 L 326.625 417.8 L 326.625 417.075 L 326.625 417.075 Q 327.5 416.675 328.675 416.475 L 328.675 416.475 L 328.675 401.65 L 328.675 401.65 Q 328.1 401.525 327.575 401.362 L 327.575 401.362 L 327.575 401.362 Q 327.05 401.2 326.625 401.025 L 326.625 401.025 L 326.625 400.3 L 329.175 400.3 L 329.175 400.3 Q 329.6 400.3 330.175 400.275 L 330.175 400.275 L 330.175 400.275 Q 330.75 400.25 331.362 400.213 L 331.362 400.213 L 331.362 400.213 Q 331.975 400.175 332.538 400.138 L 332.538 400.138 L 332.538 400.138 Q 333.1 400.1 333.475 400.1 L 333.475 400.1 L 333.475 400.1 Q 337.725 400.1 340.013 402.375 L 340.013 402.375 L 340.013 402.375 Q 342.3 404.65 342.3 408.825 L 342.3 408.825 L 342.3 408.825 Q 342.3 410.8 341.737 412.487 L 341.737 412.487 L 341.737 412.487 Q 341.175 414.175 340.025 415.4 L 340.025 415.4 L 340.025 415.4 Q 338.875 416.625 337.112 417.325 L 337.112 417.325 L 337.112 417.325 Q 335.35 418.025 332.95 418.025 L 332.95 418.025 L 332.95 418.025 Q 332.575 418.025 332.1 417.987 L 332.1 417.987 L 332.1 417.987 Q 331.625 417.95 331.1 417.913 L 331.1 417.913 L 331.1 417.913 Q 330.575 417.875 330.038 417.838 L 330.038 417.838 L 330.038 417.838 Q 329.5 417.8 329.025 417.8 L 329.025 417.8 Z  M 333.125 401.4 L 333.125 401.4 L 333.125 401.4 Q 332.475 401.4 331.875 401.413 L 331.875 401.413 L 331.875 401.413 Q 331.275 401.425 330.925 401.5 L 330.925 401.5 L 330.925 416.65 L 330.925 416.65 Q 331.05 416.675 331.375 416.688 L 331.375 416.688 L 331.375 416.688 Q 331.7 416.7 332.075 416.713 L 332.075 416.713 L 332.075 416.713 Q 332.45 416.725 332.788 416.725 L 332.788 416.725 L 332.788 416.725 Q 333.125 416.725 333.275 416.725 L 333.275 416.725 L 333.275 416.725 Q 335 416.725 336.2 416.075 L 336.2 416.075 L 336.2 416.075 Q 337.4 415.425 338.163 414.338 L 338.163 414.338 L 338.163 414.338 Q 338.925 413.25 339.275 411.825 L 339.275 411.825 L 339.275 411.825 Q 339.625 410.4 339.625 408.825 L 339.625 408.825 L 339.625 408.825 Q 339.625 407.6 339.288 406.288 L 339.288 406.288 L 339.288 406.288 Q 338.95 404.975 338.188 403.888 L 338.188 403.888 L 338.188 403.888 Q 337.425 402.8 336.175 402.1 L 336.175 402.1 L 336.175 402.1 Q 334.925 401.4 333.125 401.4 Z " fill="rgb(128,124,122)"/></g></g></svg>