<svg viewBox="0 0 480 480" xmlns="http://www.w3.org/2000/svg" fill='#F7F7F7'>
  <path fill="none" stroke="#FFEAAE" stroke-width="10" stroke-linecap="round" d="M240 140a30 30 0 0 1 0 -60a15 15 0 0 1 0 30"></path>
  <path d="
    M90 90
    a50 50 0 0 0 0 100
    H98.579
    A150 150 0 1 0 381.421 190
    H390
    a50 50 0 0 0 0 -100
    a50 50 0 1 1 -100 0
    a50 50 0 1 1 -100 0
    a50 50 0 1 1 -100 0
    z
  "/>
  <path fill="#36C79E" d="M240 140l20 20l-15 20l10 150h-30l10 -150l-15 -20z"></path>
  <path d="
    M90 90
    a50 50 0 0 0 0 100
    H98.579
    A150 150 0 1 0 381.421 190
    H390
    a50 50 0 0 0 0 -100
    a50 50 0 1 1 -100 0
    c-20 310,-80 310,-100 0
    a50 50 0 1 1 -100 0
    z
  " fill="#2E2E2E"/>
</svg>
